<?xml version="1.0" encoding="UTF-8" standalone="no"?>
<svg
   viewBox="0 0 24 24"
   version="1.1"
   id="svg1"
   sodipodi:docname="icon.svg"
   inkscape:version="1.4.3 (0d15f75, 2025-12-25)"
   xmlns:inkscape="http://www.inkscape.org/namespaces/inkscape"
   xmlns:sodipodi="http://sodipodi.sourceforge.net/DTD/sodipodi-0.dtd"
   xmlns="http://www.w3.org/2000/svg"
   xmlns:svg="http://www.w3.org/2000/svg">
  <defs
     id="defs1" />
  <sodipodi:namedview
     id="namedview1"
     pagecolor="#ffffff"
     bordercolor="#000000"
     borderopacity="0.25"
     inkscape:showpageshadow="2"
     inkscape:pageopacity="0.0"
     inkscape:pagecheckerboard="0"
     inkscape:deskcolor="#d1d1d1"
     inkscape:zoom="11.902964"
     inkscape:cx="29.614472"
     inkscape:cy="22.599413"
     inkscape:window-width="1920"
     inkscape:window-height="1010"
     inkscape:window-x="-6"
     inkscape:window-y="-6"
     inkscape:window-maximized="1"
     inkscape:current-layer="svg1" />
  <g
     id="text1"
     style="fill:#f7b500;fill-opacity:1;stroke-width:5"
     aria-label="Lo&#10;go">
    <path
       d="M 5.7679605,11.455445 V 2.8874453 h 1.08 v 7.6079997 h 3.7440005 v 0.96 z M 17.503963,8.2274453 c 0,0.536 -0.072,1.012 -0.216,1.428 -0.136,0.4079997 -0.336,0.7559997 -0.6,1.0439997 -0.256,0.288 -0.572,0.508 -0.948,0.66 -0.368,0.144 -0.78,0.216 -1.236,0.216 -0.424,0 -0.816,-0.072 -1.176,-0.216 -0.36,-0.152 -0.672,-0.372 -0.936,-0.66 -0.264,-0.288 -0.472,-0.636 -0.624,-1.0439997 -0.144,-0.416 -0.216,-0.892 -0.216,-1.428 0,-0.712 0.12,-1.312 0.36,-1.8 0.24,-0.496 0.584,-0.872 1.032,-1.128 0.448,-0.264 0.98,-0.396 1.596,-0.396 0.584,0 1.096,0.132 1.536,0.396 0.448,0.256 0.796,0.632 1.044,1.128 0.256,0.488 0.384,1.088 0.384,1.8 z m -4.86,0 c 0,0.504 0.064,0.944 0.192,1.32 0.136,0.368 0.344,0.6519997 0.624,0.8519997 0.28,0.2 0.636,0.3 1.068,0.3 0.432,0 0.788,-0.1 1.068,-0.3 0.28,-0.2 0.484,-0.4839997 0.612,-0.8519997 0.136,-0.376 0.204,-0.816 0.204,-1.32 0,-0.512 -0.068,-0.948 -0.204,-1.308 -0.136,-0.36 -0.344,-0.636 -0.624,-0.828 -0.272,-0.2 -0.628,-0.3 -1.068,-0.3 -0.656,0 -1.132,0.216 -1.428,0.648 -0.296,0.432 -0.444,1.028 -0.444,1.788 z"
       id="path2"
       sodipodi:nodetypes="cccccccscccscscsccsccsscssscsscsss"
       style="fill:#f7b500;fill-opacity:1" />
    <path
       d="m 7.9039605,11.903445 c 0.424,0 0.804,0.08 1.14,0.24 0.344,0.16 0.636,0.404 0.876,0.732 h 0.06 l 0.1440005,-0.852 h 0.84 v 6.54 c 0,0.608 -0.104,1.116 -0.312,1.524 -0.208,0.416 -0.524,0.728 -0.9480005,0.936 -0.424,0.208 -0.964,0.312 -1.62,0.312 -0.464,0 -0.892,-0.036 -1.284,-0.108 -0.384,-0.064 -0.728,-0.164 -1.032,-0.3 v -0.972 c 0.304,0.16 0.66,0.284 1.068,0.372 0.408,0.088 0.844,0.132 1.308,0.132 0.552,0 0.984,-0.164 1.296,-0.492 0.32,-0.32 0.48,-0.76 0.48,-1.32 v -0.252 c 0,-0.096 0.004,-0.232 0.012,-0.408 0.008,-0.184 0.016,-0.312 0.024,-0.384 h -0.048 c -0.224,0.328 -0.504,0.572 -0.84,0.732 -0.328,0.16 -0.712,0.24 -1.152,0.24 -0.832,0 -1.484,-0.292 -1.956,-0.876 -0.464,-0.584 -0.696,-1.4 -0.696,-2.448 0,-1.024 0.232,-1.836 0.696,-2.436 0.472,-0.608 1.12,-0.912 1.944,-0.912 z m 0.144,0.888 c -0.36,0 -0.668,0.096 -0.924,0.288 -0.248,0.192 -0.44,0.472 -0.576,0.84 -0.128,0.368 -0.192,0.816 -0.192,1.344 0,0.792 0.144,1.4 0.432,1.824 0.296,0.416 0.724,0.624 1.284,0.624 0.328,0 0.608,-0.04 0.84,-0.12 0.232,-0.088 0.424,-0.22 0.576,-0.396 0.152,-0.184 0.264,-0.416 0.336,-0.696 0.072,-0.28 0.108,-0.612 0.108,-0.996 v -0.252 c 0,-0.584 -0.068,-1.056 -0.204,-1.416 -0.128,-0.36 -0.332,-0.624 -0.612,-0.792 -0.28,-0.168 -0.636,-0.252 -1.068,-0.252 z m 10.5479975,2.436 c 0,0.536 -0.072,1.012 -0.216,1.428 -0.136,0.408 -0.336,0.756 -0.6,1.044 -0.256,0.288 -0.572,0.508 -0.948,0.66 -0.368,0.144 -0.78,0.216 -1.236,0.216 -0.424,0 -0.816,-0.072 -1.176,-0.216 -0.36,-0.152 -0.672,-0.372 -0.936,-0.66 -0.264,-0.288 -0.472,-0.636 -0.624,-1.044 -0.144,-0.416 -0.216,-0.892 -0.216,-1.428 0,-0.712 0.12,-1.312 0.36,-1.8 0.24,-0.496 0.584,-0.872 1.032,-1.128 0.448,-0.264 0.98,-0.396 1.596,-0.396 0.584,0 1.096,0.132 1.536,0.396 0.448,0.256 0.796,0.632 1.044,1.128 0.256,0.488 0.384,1.088 0.384,1.8 z m -4.86,0 c 0,0.504 0.064,0.944 0.192,1.32 0.136,0.368 0.344,0.652 0.624,0.852 0.28,0.2 0.636,0.3 1.068,0.3 0.432,0 0.788,-0.1 1.068,-0.3 0.28,-0.2 0.484,-0.484 0.612,-0.852 0.136,-0.376 0.204,-0.816 0.204,-1.32 0,-0.512 -0.068,-0.948 -0.204,-1.308 -0.136,-0.36 -0.344,-0.636 -0.624,-0.828 -0.272,-0.2 -0.628,-0.3 -1.068,-0.3 -0.656,0 -1.132,0.216 -1.428,0.648 -0.296,0.432 -0.444,1.028 -0.444,1.788 z"
       id="path3"
       sodipodi:nodetypes="scccccscsscccsscssccccscscssccscsccssscssscccscscsccsccsscssscsscsss"
       style="fill:#f7b500;fill-opacity:1" />
  </g>
  <rect
     style="fill:#f7b500;fill-opacity:1;stroke-width:5"
     id="rect3"
     width="5.0131326"
     height="18.314766"
     x="18.986868"
     y="3.1084695" />
  <rect
     style="fill:#f7b500;fill-opacity:1;stroke-width:5"
     id="rect4"
     width="4.1166215"
     height="18.986868"
     x="0"
     y="2.3523552" />
</svg>
